<svg width="40" height="40" viewBox="0 0 40 40" fill="none" xmlns="http://www.w3.org/2000/svg">
<g clip-path="url(#clip0_3227_153097)">
<path fill-rule="evenodd" clip-rule="evenodd" d="M11.8336 21.0873C11.5969 19.2738 11.3637 17.4603 11.1305 15.6469C11.0505 15.0343 10.685 14.7663 10.0619 14.8533C9.55374 14.9229 9.25092 15.2362 9.03163 15.6643C8.48167 16.7259 8.03614 17.8328 7.60104 18.9431C7.33303 19.6219 7.06849 20.3041 6.77611 21.049C6.75522 21.0037 6.7413 20.9689 6.72738 20.9376C6.70301 20.8819 6.68561 20.8436 6.6682 20.8053C6.5777 20.5721 6.4872 20.3389 6.3967 20.1092C5.88851 18.7935 5.38032 17.4743 4.77816 16.1969C4.77467 16.1864 4.76771 16.176 4.76423 16.169C4.61456 15.8488 4.46489 15.532 4.23516 15.2605C3.90797 14.8742 3.47287 14.7837 2.98905 14.8916C2.53307 14.996 2.44953 15.3441 2.40428 15.7444C2.37992 15.9776 2.35207 16.2143 2.32075 16.4475L2.13278 17.8502C2.07013 18.334 2.004 18.8178 1.94134 19.3016C1.77775 20.5269 1.61415 21.7521 1.461 22.9808C1.40531 23.4298 1.64896 23.7256 2.06665 23.7744C2.50523 23.8266 2.88811 23.5551 2.9438 23.1339C2.99949 22.7232 3.04822 22.309 3.09695 21.8983C3.12828 21.6337 3.15961 21.3692 3.19093 21.1047C3.29536 20.2554 3.40326 19.4095 3.51116 18.5533C3.56685 18.1182 3.62255 17.6796 3.67824 17.2376C3.7931 17.3107 3.82791 17.4047 3.85924 17.4917C3.86968 17.516 3.87664 17.5369 3.88708 17.5613C4.54494 19.0127 5.06358 20.5199 5.57873 22.0236C5.64138 22.2046 5.70055 22.3821 5.76321 22.5631C5.9999 23.2453 6.26095 23.482 6.77611 23.4785C7.28081 23.475 7.51751 23.2523 7.75768 22.5805C8.19973 21.3309 8.64527 20.0813 9.10473 18.8387C9.30661 18.2922 9.51546 17.7492 9.85309 17.1889C9.91226 17.6622 9.96795 18.1252 10.0271 18.5811C10.1141 19.2912 10.2012 19.9839 10.2882 20.6765C10.316 20.8958 10.3439 21.1151 10.3682 21.3344C10.4448 21.9505 10.5179 22.5666 10.6084 23.1792C10.6676 23.5934 11.0888 23.8405 11.5204 23.757C11.9276 23.6804 12.126 23.3915 12.0703 22.9634C11.9937 22.3368 11.9137 21.7103 11.8336 21.0873Z" fill="black"/>
<path fill-rule="evenodd" clip-rule="evenodd" d="M19.0943 19.0964C18.9133 18.9537 18.882 18.8562 19.0247 18.6787C19.2371 18.4141 19.3902 18.1183 19.4355 17.7772C19.6269 16.3536 18.7115 15.1353 17.2426 14.9265C16.4594 14.8151 15.6693 14.8325 14.8826 14.8499C14.4998 14.8569 14.1169 14.8673 13.734 14.8603C13.0344 14.8499 12.7663 15.1249 12.7629 15.8106C12.7594 16.6042 12.7594 17.3978 12.7629 18.1949C12.7629 18.5603 12.7629 18.9293 12.7629 19.2948C12.7629 19.6289 12.7629 19.9665 12.7629 20.3007C12.7629 21.1395 12.7629 21.9784 12.7629 22.8172C12.7663 23.5029 13.0344 23.7675 13.734 23.771C14.9314 23.7744 16.1322 23.7744 17.3296 23.771C18.621 23.7675 19.6617 23.0887 20.0655 22.0028C20.4588 20.9377 20.1246 19.9143 19.0943 19.0964ZM18.6384 21.1291C18.5862 21.773 18.0606 22.1907 17.267 22.2012C16.9711 22.2046 16.6752 22.2046 16.3794 22.2046C16.2401 22.2046 16.1044 22.2046 15.9652 22.2046C15.8155 22.2046 15.6658 22.2046 15.5161 22.2046C15.1785 22.2046 14.8409 22.2012 14.5032 22.2081C14.2248 22.2151 14.1204 22.1072 14.1204 21.8322C14.1308 20.0675 14.1308 18.3062 14.1238 16.545C14.1238 16.2665 14.2283 16.1726 14.5067 16.176C14.8513 16.183 15.1959 16.1795 15.544 16.1795C15.9164 16.1795 16.2889 16.176 16.6613 16.183C17.4097 16.1969 17.9179 16.6703 17.9109 17.3177C17.9074 17.9616 17.441 18.3619 16.6613 18.3898C16.5499 18.3933 16.4351 18.3967 16.3237 18.3967C16.0974 18.4002 15.8712 18.4037 15.6484 18.4246C15.1681 18.4733 14.9488 18.7239 14.9731 19.1486C14.9975 19.5384 15.2516 19.7473 15.7145 19.7647C15.9199 19.7716 16.1287 19.7681 16.3341 19.7612C16.724 19.7507 17.1103 19.7438 17.4967 19.8169C18.2799 19.977 18.6941 20.4504 18.6384 21.1291Z" fill="black"/>
<path fill-rule="evenodd" clip-rule="evenodd" d="M29.8434 16.4162C29.558 16.3535 29.3735 16.4823 29.3004 16.7643C29.2935 16.7851 29.2865 16.8095 29.2795 16.8304C29.2691 16.8582 29.2621 16.8896 29.2552 16.9209C29.1995 17.1785 29.1438 17.4326 29.0881 17.6901C28.9732 18.2262 28.8584 18.7622 28.7365 19.2947C28.7087 19.4131 28.6843 19.5314 28.66 19.6532C28.5903 20.0013 28.5138 20.3633 28.3537 20.7392C28.0996 19.8691 27.9116 19.0267 27.7306 18.1948C27.6679 17.9129 27.6088 17.6344 27.5426 17.356C27.5322 17.3072 27.5218 17.255 27.5113 17.2063C27.4487 16.8826 27.386 16.545 26.9231 16.5519C26.4671 16.5589 26.401 16.893 26.3313 17.2167C26.3209 17.2655 26.3105 17.3142 26.3 17.3629C26.2582 17.537 26.2165 17.7075 26.1782 17.8816C25.9519 18.8388 25.7222 19.8064 25.4055 20.8506C25.3776 20.7357 25.3498 20.6383 25.3254 20.5513C25.2836 20.3912 25.2488 20.2589 25.221 20.1301L24.5422 16.8791C24.4761 16.5659 24.3195 16.3361 23.9575 16.4197C23.6129 16.4997 23.5885 16.7712 23.6512 17.0636C23.672 17.1576 23.6894 17.2516 23.7069 17.349C23.7312 17.4778 23.7591 17.6101 23.7869 17.7389C23.8287 17.9268 23.867 18.1183 23.9087 18.3062C24.1454 19.4235 24.3856 20.5443 24.7372 21.6338C24.8903 22.1037 25.1688 22.2742 25.583 22.1907C25.9345 22.1176 26.0424 21.8357 26.1225 21.5433C26.3105 20.8785 26.4949 20.2102 26.6933 19.4966C26.7664 19.2356 26.8395 18.971 26.9161 18.6961C26.9405 18.7831 26.9579 18.8562 26.9753 18.9223C27.0066 19.0372 27.0275 19.1207 27.0484 19.2077C27.2468 20.05 27.4452 20.8889 27.7167 21.7138C27.8211 22.0306 28.0299 22.2081 28.378 22.2046C28.7226 22.2011 28.9349 22.0306 29.0394 21.7103C29.4675 20.3912 29.7425 19.0372 30.0175 17.6797C30.0662 17.4326 30.1184 17.1889 30.1671 16.9418C30.2193 16.6772 30.1149 16.4754 29.8434 16.4162Z" fill="black"/>
<path fill-rule="evenodd" clip-rule="evenodd" d="M33.4157 16.8374C33.3008 16.5554 33.1059 16.4092 32.7996 16.3988C32.4933 16.3883 32.2809 16.5311 32.1556 16.8026C31.4316 18.3793 30.92 20.0327 30.4257 21.6895C30.3352 21.9888 30.5266 22.1977 30.8643 22.2011C31.0627 22.2116 31.2124 22.0828 31.2854 21.874C31.3934 21.5676 31.4943 21.2579 31.5744 20.9446C31.6405 20.687 31.7623 20.5582 32.0547 20.5687C32.542 20.5896 33.0293 20.5826 33.5166 20.5687C33.7603 20.5617 33.8856 20.6592 33.9552 20.8889C34.0178 21.1012 34.0909 21.3066 34.164 21.5154C34.1988 21.6129 34.2336 21.7104 34.2685 21.8113C34.3694 22.1106 34.5608 22.2777 34.8845 22.1663C35.2117 22.0549 35.1874 21.78 35.1038 21.5224C34.5817 19.9491 34.0457 18.3758 33.4157 16.8374ZM33.172 19.7472C32.8413 19.7507 32.5107 19.7507 32.1835 19.7507C32.0164 19.7507 31.9538 19.6637 32.0094 19.4792C32.0338 19.3922 32.0582 19.3087 32.086 19.2216C32.2461 18.6752 32.4063 18.1183 32.6638 17.5196C32.9562 18.2088 33.1407 18.8457 33.3286 19.4862L33.3321 19.4966C33.3739 19.6567 33.3217 19.7438 33.172 19.7472Z" fill="black"/>
<path fill-rule="evenodd" clip-rule="evenodd" d="M38.7144 16.4371C38.4046 16.3188 38.2305 16.4963 38.1087 16.7539C38.0809 16.8165 38.0495 16.8792 38.0217 16.9418C37.7432 17.5266 37.4683 18.1148 37.1828 18.6961C37.1759 18.7135 37.1654 18.7344 37.1585 18.7553C37.1202 18.8493 37.0784 18.9537 36.9496 18.9432C36.8487 18.9363 36.8104 18.8423 36.7721 18.7588C36.7652 18.7414 36.7582 18.724 36.7478 18.7066C36.518 18.2227 36.2883 17.7389 36.062 17.2516C35.9889 17.0985 35.9193 16.9488 35.8462 16.7956C35.714 16.5137 35.533 16.2909 35.1849 16.4511C34.8577 16.6007 34.889 16.8653 35.0143 17.1402C35.07 17.2621 35.1257 17.3874 35.1779 17.5127C35.2998 17.7981 35.4251 18.087 35.5852 18.3515C36.2152 19.4062 36.7512 20.4713 36.5354 21.7626C36.4937 22.0237 36.6851 22.1803 36.9636 22.2047C37.2594 22.1838 37.3952 22.0132 37.3952 21.7243C37.3952 21.6025 37.3952 21.4842 37.3986 21.3623C37.4021 21.0491 37.4021 20.7358 37.3952 20.4225C37.3882 20.1406 37.4648 19.9144 37.6249 19.6742C38.1644 18.8597 38.5751 17.9721 38.9406 17.0671C39.052 16.7991 39.0242 16.5555 38.7144 16.4371Z" fill="black"/>
<path fill-rule="evenodd" clip-rule="evenodd" d="M20.8934 26.089C20.8621 25.4242 20.5801 25.1005 20.0754 25.1179C19.5707 25.1353 19.3619 25.4451 19.3862 26.1517C19.4036 26.6982 19.327 26.7817 18.7736 26.7817C13.556 26.7852 8.33832 26.7852 3.12067 26.7817C2.58812 26.7817 2.48718 26.6529 2.55679 26.1273C2.5742 26.0125 2.58464 25.8906 2.5742 25.7758C2.54287 25.3998 2.26441 25.1388 1.88501 25.1144C1.4882 25.0866 1.16797 25.3198 1.08792 25.7027C1.06007 25.8315 1.05659 25.9637 1.0357 26.0925C0.826859 27.4187 1.54389 28.2366 2.93271 28.2366H10.9419C13.6813 28.2366 16.4171 28.2401 19.1565 28.2366C20.0824 28.2366 20.7333 27.7389 20.8725 26.914C20.9212 26.6459 20.9073 26.364 20.8934 26.089Z" fill="#D60510"/>
<path fill-rule="evenodd" clip-rule="evenodd" d="M3.45022 13.2626C3.85747 13.3288 4.22643 13.0503 4.31693 12.6117L4.35522 12.382C4.49445 11.7067 4.65108 11.5814 5.36811 11.5814H13.9934C14.9123 11.5814 15.8278 11.5884 16.7467 11.5814C17.1679 11.578 17.422 11.7555 17.509 12.1418C17.5507 12.3298 17.5716 12.5247 17.6204 12.7127C17.7143 13.0642 18.0554 13.2974 18.4105 13.2661C18.7725 13.2383 19.1066 12.9598 19.0962 12.6048C19.0544 11.1638 18.4975 10.1091 16.8024 10.1439C14.8601 10.1822 12.9144 10.1543 10.9686 10.1543C8.97069 10.1543 6.96926 10.1509 4.97131 10.1543C3.90272 10.1578 3.27966 10.5964 2.9838 11.5606C2.90026 11.832 2.85153 12.1175 2.81672 12.3959C2.76103 12.8345 3.03601 13.1965 3.45022 13.2626Z" fill="#D60510"/>
</g>
<defs>
<clipPath id="clip0_3227_153097">
<rect width="40" height="40" fill="white"/>
</clipPath>
</defs>
</svg>
