<svg width="40" height="40" viewBox="0 0 40 40" fill="none" xmlns="http://www.w3.org/2000/svg">
<g clip-path="url(#clip0_3227_153108)">
<path fill-rule="evenodd" clip-rule="evenodd" d="M19.7644 26.8584H28.8727C30.9531 26.8584 30.9745 24.6476 30.7634 23.556C30.6467 22.8222 29.4005 22.8291 29.2624 23.556V24.4073C29.2624 24.7978 28.9448 25.1154 28.5543 25.1154H11.0903C10.9027 25.1149 10.7229 25.0402 10.5902 24.9075C10.4575 24.7748 10.3828 24.595 10.3823 24.4073V23.556C10.245 22.8291 8.998 22.8222 8.88214 23.556C8.67102 24.6476 8.69161 26.8584 10.7719 26.8584H19.7653H19.7644ZM13.3234 5.68262H27.3691C28.3544 5.68262 29.1628 6.53741 29.1628 7.58101V8.49072C29.1628 9.77291 27.4258 9.76947 27.4258 8.49845V8.00154C27.4253 7.84948 27.3646 7.70379 27.257 7.59635C27.1494 7.48891 27.0037 7.42847 26.8516 7.42824H12.7768C12.6248 7.4287 12.4793 7.48924 12.3719 7.59666C12.2645 7.70407 12.2039 7.84963 12.2035 8.00154V8.48643C12.2035 9.76261 10.5471 9.75403 10.5471 8.51389V7.58101C10.5471 6.53741 11.3547 5.68262 12.3408 5.68262H13.3226H13.3234Z" fill="#1866AB"/>
<path fill-rule="evenodd" clip-rule="evenodd" d="M28.8095 16.1143C29.7819 16.5717 30.453 17.5166 30.453 18.6005C30.453 20.1299 29.1185 21.3812 27.4862 21.3812H22.9118C22.4844 21.3812 22.1343 21.0525 22.1343 20.6525V11.9502C22.1343 11.5296 22.4776 11.1863 22.8981 11.1863H26.7077C27.4802 11.1882 28.2205 11.4956 28.7669 12.0416C29.3134 12.5875 29.6215 13.3276 29.624 14.1C29.624 14.8793 29.3133 15.589 28.8087 16.1143H28.8095ZM25.3947 15.4045H26.8459V15.3891C27.1718 15.3382 27.4689 15.173 27.6839 14.9229C27.8989 14.6728 28.0177 14.3543 28.0191 14.0245C28.0191 13.265 27.3969 12.6427 26.6382 12.6427H23.7125V19.8647H27.4218C28.2071 19.8647 28.8482 19.2227 28.8482 18.4383C28.8482 17.6539 28.2071 17.012 27.4218 17.012H26.8468V17.0085H25.3947C25.1821 17.0078 24.9785 16.9231 24.8283 16.7727C24.6781 16.6223 24.5935 16.4186 24.5931 16.2061C24.5931 15.7658 24.9535 15.4045 25.3947 15.4045Z" fill="black"/>
<path fill-rule="evenodd" clip-rule="evenodd" d="M13.9033 29.5301C13.9033 29.3945 14.014 29.2847 14.1496 29.2847C14.2852 29.2847 14.3942 29.3945 14.3942 29.5301V30.8578C14.3933 31.1495 14.277 31.4291 14.0707 31.6354C13.8644 31.8417 13.5849 31.958 13.2931 31.9589V31.9606V31.9589C13.1483 31.9591 13.0049 31.9308 12.871 31.8755C12.7372 31.8202 12.6156 31.7391 12.5131 31.6367C12.4107 31.5343 12.3294 31.4128 12.274 31.279C12.2187 31.1452 12.1902 31.0018 12.1903 30.8569H12.1895V29.5293C12.1895 29.4642 12.2153 29.4017 12.2613 29.3557C12.3074 29.3097 12.3698 29.2838 12.4349 29.2838C12.5 29.2838 12.5624 29.3097 12.6085 29.3557C12.6545 29.4017 12.6804 29.4642 12.6804 29.5293V30.8569C12.6804 31.0243 12.749 31.1771 12.8606 31.2895C12.9722 31.401 13.1249 31.4697 13.2923 31.4697V31.468H13.2931V31.4688C13.4613 31.4688 13.6132 31.4002 13.7248 31.2886C13.8364 31.1771 13.905 31.0243 13.905 30.8569H13.9033V29.5301Z" fill="black"/>
<path fill-rule="evenodd" clip-rule="evenodd" d="M16.2212 31.4687C16.2546 31.4668 16.2881 31.4716 16.3195 31.483C16.351 31.4945 16.3797 31.5122 16.4041 31.5351C16.4284 31.5581 16.4478 31.5858 16.4611 31.6165C16.4743 31.6472 16.4812 31.6803 16.4812 31.7138C16.4812 31.7472 16.4743 31.7803 16.4611 31.811C16.4478 31.8417 16.4284 31.8694 16.4041 31.8924C16.3797 31.9153 16.351 31.933 16.3195 31.9445C16.2881 31.9559 16.2546 31.9608 16.2212 31.9588H15.5441C15.2909 31.9588 15.06 31.8549 14.8927 31.6867C14.8072 31.6017 14.7393 31.5006 14.6931 31.3893C14.6468 31.2779 14.6231 31.1585 14.6232 31.0379H14.6215V29.53C14.6215 29.3944 14.7322 29.2846 14.8678 29.2846C15.0034 29.2846 15.1124 29.3944 15.1124 29.53V31.037C15.1124 31.1555 15.1613 31.2636 15.2403 31.3426C15.3175 31.4215 15.4256 31.4704 15.5441 31.4704V31.4687H16.2221H16.2212ZM21.4075 20.5127C21.4248 20.7504 21.349 20.9856 21.1961 21.1685C21.0433 21.3514 20.8253 21.4676 20.5882 21.4927C20.3511 21.5178 20.1136 21.4497 19.9259 21.3028C19.7381 21.156 19.6148 20.9419 19.582 20.7058L18.8294 13.785L16.1663 20.553L16.1629 20.5581V20.559L16.1543 20.5779L16.1491 20.5916L16.1483 20.595L16.1414 20.6096L16.1371 20.6182L16.1302 20.6302L16.1285 20.6371L16.1217 20.65L16.1182 20.656C16.0693 20.7478 16.0067 20.8293 15.9329 20.898L15.9294 20.9006L15.9157 20.9126C15.8672 20.956 15.814 20.9937 15.7569 21.025L15.7535 21.0284L15.7363 21.037L15.7346 21.0387L15.7192 21.0448L15.7106 21.049L15.702 21.0542L15.69 21.0593L15.6814 21.0636L15.6694 21.0679L15.6591 21.0731L15.6505 21.0774L15.6419 21.0808L15.6368 21.0825L15.629 21.0851L15.617 21.0902L15.6102 21.092C15.5232 21.1227 15.432 21.14 15.3398 21.1434H15.2737C15.1708 21.1394 15.0693 21.1182 14.9734 21.0808L14.9613 21.0748L14.9579 21.0739L14.945 21.0696L14.933 21.0636L14.9244 21.0593L14.9141 21.0542L14.9021 21.0482L14.8961 21.0448L14.8798 21.0387L14.8772 21.037L14.8635 21.0293L14.8549 21.025C14.8057 20.9963 14.7589 20.9635 14.715 20.9272L14.7116 20.9237C14.7022 20.9152 14.691 20.9066 14.6824 20.8971H14.6807L14.6575 20.874C14.6507 20.8654 14.6429 20.8594 14.6361 20.8517L14.6086 20.8208L14.6052 20.8173C14.5685 20.773 14.5358 20.7257 14.5073 20.6757L14.5039 20.6697L14.4962 20.6551L14.4953 20.6525L14.4868 20.6354L14.4833 20.6294L14.4782 20.6191L14.473 20.6079L14.4687 20.5985L14.4627 20.5856L14.4584 20.5744L14.4576 20.5719L14.4516 20.559L11.7851 13.785L11.0324 20.7058C11.0234 20.8285 10.9899 20.9483 10.9337 21.0578C10.8776 21.1674 10.8 21.2645 10.7055 21.3435C10.6111 21.4224 10.5017 21.4816 10.3839 21.5174C10.2661 21.5533 10.1424 21.5651 10.0199 21.5521C9.89752 21.5392 9.77895 21.5017 9.67128 21.442C9.56361 21.3823 9.46904 21.3016 9.3932 21.2046C9.31736 21.1077 9.26179 20.9964 9.2298 20.8776C9.1978 20.7587 9.19004 20.6346 9.20696 20.5127L10.0944 12.3527V12.3501L10.0952 12.3467C10.1173 12.1551 10.1753 11.9693 10.266 11.7991C10.4926 11.3726 10.9097 11.0748 11.4057 11.0061H11.4074C11.501 10.993 11.5955 10.989 11.6898 10.9941H11.6932C11.9862 11.0058 12.2694 11.1026 12.5083 11.2727C12.7471 11.4428 12.9312 11.6788 13.0381 11.9519L15.3081 17.7183L17.5781 11.9519C17.6844 11.6786 17.8682 11.4424 18.107 11.2723C18.3458 11.1021 18.6291 11.0054 18.922 10.9941H18.9263C19.0019 10.9898 19.0791 10.9915 19.1581 11.001C19.1744 11.001 19.1907 11.0027 19.207 11.0061H19.2087C19.5456 11.051 19.8578 11.2074 20.0954 11.4504C20.3331 11.6933 20.4826 12.0089 20.5201 12.3467V12.3527L21.4075 20.5127V20.5127Z" fill="black"/>
<path fill-rule="evenodd" clip-rule="evenodd" d="M12.0995 31.6851C12.1054 31.7181 12.1046 31.7519 12.0969 31.7845C12.0893 31.8171 12.0751 31.8478 12.0552 31.8747C12.0353 31.9016 12.01 31.9242 11.9811 31.941C11.9521 31.9578 11.92 31.9685 11.8867 31.9724C11.8535 31.9763 11.8198 31.9734 11.7877 31.9638C11.7556 31.9543 11.7258 31.9382 11.7001 31.9167C11.6745 31.8952 11.6535 31.8686 11.6385 31.8387C11.6235 31.8087 11.6148 31.776 11.6129 31.7426L11.4026 29.9764L10.6534 31.7143C10.6273 31.7739 10.5789 31.8208 10.5185 31.8449C10.4581 31.869 10.3906 31.8683 10.3307 31.843C10.2732 31.8177 10.2273 31.7718 10.202 31.7143L9.45272 29.9764L9.24246 31.7426C9.24056 31.776 9.23183 31.8087 9.21682 31.8387C9.20181 31.8686 9.18084 31.8952 9.15518 31.9167C9.12953 31.9382 9.09974 31.9543 9.06765 31.9638C9.03557 31.9734 9.00186 31.9763 8.9686 31.9724C8.93534 31.9685 8.90324 31.9578 8.87427 31.941C8.8453 31.9242 8.82008 31.9016 8.80015 31.8747C8.78022 31.8478 8.76601 31.8171 8.75839 31.7845C8.75077 31.7519 8.74991 31.7181 8.75585 31.6851L9.00044 29.634C9.00793 29.5697 9.03132 29.5084 9.06848 29.4555C9.10564 29.4026 9.15541 29.3598 9.21328 29.331C9.22959 29.3224 9.24589 29.3156 9.26134 29.3087L9.28022 29.3018C9.304 29.2956 9.32806 29.2904 9.35231 29.2864V29.2872L9.35489 29.2864H9.35746C9.43166 29.2766 9.50713 29.2868 9.57608 29.3159C9.64502 29.345 9.70495 29.392 9.74967 29.452C9.76083 29.4666 9.76941 29.4829 9.77799 29.4975C9.784 29.5061 9.78829 29.5164 9.79172 29.525L10.4268 30.9985L11.0619 29.525C11.0926 29.4544 11.1429 29.3942 11.2068 29.3513C11.2706 29.3084 11.3454 29.2847 11.4223 29.2829C11.4398 29.2818 11.4573 29.2818 11.4747 29.2829H11.4773C11.4824 29.2838 11.4893 29.2838 11.4944 29.2855H11.4979C11.5874 29.2955 11.6711 29.335 11.7357 29.3977C11.8004 29.4605 11.8423 29.543 11.8549 29.6322V29.634L12.0995 31.6851Z" fill="black"/>
<path fill-rule="evenodd" clip-rule="evenodd" d="M17.294 31.7141C17.2937 31.7791 17.2678 31.8414 17.2218 31.8874C17.1758 31.9334 17.1135 31.9593 17.0485 31.9596C16.9836 31.9591 16.9215 31.9331 16.8757 31.8871C16.8299 31.8412 16.8041 31.779 16.8039 31.7141V29.7754H16.1053C16.0402 29.7754 15.9778 29.7495 15.9318 29.7035C15.8857 29.6575 15.8599 29.595 15.8599 29.5299C15.8599 29.4648 15.8857 29.4024 15.9318 29.3564C15.9778 29.3103 16.0402 29.2845 16.1053 29.2845H17.9925C18.0576 29.2845 18.1201 29.3103 18.1661 29.3564C18.2121 29.4024 18.238 29.4648 18.238 29.5299C18.238 29.595 18.2121 29.6575 18.1661 29.7035C18.1201 29.7495 18.0576 29.7754 17.9925 29.7754H17.294V31.715V31.7141Z" fill="black"/>
<path fill-rule="evenodd" clip-rule="evenodd" d="M18.8235 31.7143C18.8255 31.7477 18.8206 31.7811 18.8092 31.8126C18.7977 31.844 18.78 31.8728 18.7571 31.8972C18.7341 31.9215 18.7064 31.9409 18.6757 31.9542C18.645 31.9674 18.6119 31.9743 18.5785 31.9743C18.545 31.9743 18.5119 31.9674 18.4812 31.9542C18.4505 31.9409 18.4228 31.9215 18.3998 31.8972C18.3769 31.8728 18.3592 31.844 18.3477 31.8126C18.3363 31.7811 18.3315 31.7477 18.3334 31.7143V29.5301C18.3334 29.4651 18.3593 29.4028 18.4052 29.3569C18.4512 29.3109 18.5135 29.2851 18.5785 29.2851C18.6434 29.2851 18.7058 29.3109 18.7517 29.3569C18.7977 29.4028 18.8235 29.4651 18.8235 29.5301V31.7143Z" fill="black"/>
<path fill-rule="evenodd" clip-rule="evenodd" d="M23.8553 31.6843C23.862 31.7174 23.8618 31.7516 23.8547 31.7846C23.8475 31.8177 23.8337 31.8489 23.8139 31.8764C23.7942 31.9038 23.7689 31.9269 23.7398 31.9442C23.7107 31.9614 23.6784 31.9724 23.6448 31.9766C23.6113 31.9807 23.5772 31.9779 23.5448 31.9683C23.5124 31.9586 23.4823 31.9424 23.4564 31.9206C23.4306 31.8988 23.4095 31.8719 23.3946 31.8415C23.3796 31.8112 23.3711 31.7781 23.3695 31.7443L23.2828 31.0517H22.4323C22.3673 31.0515 22.305 31.0256 22.259 30.9796C22.213 30.9336 22.1871 30.8713 22.1869 30.8063C22.1869 30.6707 22.2985 30.56 22.4323 30.56H23.2219L23.1996 30.3798L23.1979 30.378V30.3609C23.1843 30.2726 23.1574 30.187 23.1181 30.1068C23.0219 29.912 22.846 29.7756 22.6229 29.7756H22.6203V29.7747C22.5396 29.7746 22.4601 29.7941 22.3886 29.8314C22.1989 29.9266 22.0719 30.1352 22.0453 30.3772L21.8925 31.7409C21.8812 31.8018 21.8473 31.8561 21.7976 31.893C21.7479 31.9299 21.6861 31.9467 21.6245 31.9399C21.563 31.9332 21.5063 31.9035 21.4657 31.8567C21.4252 31.8099 21.4038 31.7496 21.4059 31.6877L21.5604 30.3231C21.605 29.9215 21.8273 29.5653 22.1646 29.3928C22.3058 29.3223 22.4616 29.2859 22.6194 29.2864V29.2855H22.6229C23.0468 29.2855 23.3781 29.5327 23.5549 29.8889C23.6201 30.0162 23.663 30.1538 23.6819 30.2956L23.6862 30.318V30.3205L23.8553 31.6843V31.6843Z" fill="black"/>
<path fill-rule="evenodd" clip-rule="evenodd" d="M24.6067 31.7142C24.6087 31.7476 24.6038 31.781 24.5924 31.8124C24.581 31.8439 24.5632 31.8727 24.5403 31.897C24.5173 31.9214 24.4897 31.9408 24.4589 31.954C24.4282 31.9673 24.3951 31.9741 24.3617 31.9741C24.3282 31.9741 24.2951 31.9673 24.2644 31.954C24.2337 31.9408 24.206 31.9214 24.183 31.897C24.1601 31.8727 24.1424 31.8439 24.131 31.8124C24.1195 31.781 24.1147 31.7476 24.1166 31.7142V29.6853C24.1166 29.6699 24.1175 29.657 24.1201 29.6433C24.1224 29.6159 24.1288 29.589 24.139 29.5634V29.5626C24.1441 29.5497 24.151 29.5343 24.1596 29.5197V29.5171C24.1845 29.4703 24.2203 29.4301 24.2638 29.3998C24.3074 29.3695 24.3576 29.35 24.4102 29.3429L24.4119 29.3412C24.429 29.3377 24.4479 29.3369 24.4719 29.3377H24.478C24.5282 29.3394 24.5775 29.3522 24.6222 29.375C24.667 29.3978 24.7062 29.4302 24.7371 29.4699L26.0434 31.1349V29.53C26.0414 29.4966 26.0462 29.4631 26.0577 29.4317C26.0691 29.4002 26.0868 29.3715 26.1098 29.3471C26.1327 29.3228 26.1604 29.3034 26.1911 29.2901C26.2218 29.2769 26.2549 29.27 26.2884 29.27C26.3218 29.27 26.3549 29.2769 26.3856 29.2901C26.4164 29.3034 26.444 29.3228 26.467 29.3471C26.4899 29.3715 26.5077 29.4002 26.5191 29.4317C26.5305 29.4631 26.5354 29.4966 26.5334 29.53V31.5494C26.5331 31.6009 26.5214 31.6517 26.4991 31.6981C26.4768 31.7445 26.4446 31.7855 26.4047 31.818C26.3901 31.8292 26.3729 31.8412 26.354 31.8515C26.3445 31.8575 26.3344 31.8627 26.324 31.8669L26.3223 31.8678H26.3206C26.3144 31.8716 26.3078 31.8745 26.3008 31.8764H26.2974C26.2117 31.9064 26.1177 31.9015 26.0356 31.8626L26.0039 31.8455C25.9733 31.8277 25.9462 31.8044 25.9241 31.7768L25.9163 31.7665H25.9155H25.9163L25.9129 31.7622L24.6067 30.0981V31.7142V31.7142Z" fill="black"/>
<path fill-rule="evenodd" clip-rule="evenodd" d="M28.4373 31.4687C28.4707 31.4667 28.5041 31.4716 28.5356 31.483C28.567 31.4944 28.5958 31.5121 28.6201 31.5351C28.6445 31.558 28.6639 31.5857 28.6771 31.6164C28.6904 31.6471 28.6972 31.6802 28.6972 31.7137C28.6972 31.7471 28.6904 31.7802 28.6771 31.811C28.6639 31.8417 28.6445 31.8694 28.6201 31.8923C28.5958 31.9152 28.567 31.933 28.5356 31.9444C28.5041 31.9558 28.4707 31.9607 28.4373 31.9587H27.7147C27.5876 31.9587 27.4617 31.9337 27.3443 31.885C27.2269 31.8363 27.1203 31.765 27.0304 31.6751C26.9406 31.5852 26.8694 31.4785 26.8208 31.361C26.7723 31.2436 26.7473 31.1177 26.7474 30.9906H26.7466V30.2526H26.7474C26.7474 29.9865 26.8564 29.7436 27.0324 29.5694C27.2066 29.3943 27.4477 29.2862 27.7147 29.2862V29.2845H28.4373C28.5025 29.2845 28.565 29.3104 28.6111 29.3565C28.6573 29.4026 28.6832 29.4652 28.6832 29.5304C28.6832 29.5956 28.6573 29.6581 28.6111 29.7042C28.565 29.7503 28.5025 29.7762 28.4373 29.7762H27.7147V29.7745C27.6516 29.7745 27.5893 29.7871 27.5312 29.8116C27.4731 29.836 27.4205 29.8719 27.3765 29.917C27.2907 30.0028 27.2366 30.1221 27.2366 30.2526H27.2375V30.9906C27.2373 31.0535 27.2494 31.1158 27.2733 31.1739C27.2972 31.232 27.3323 31.2849 27.3766 31.3295C27.4209 31.374 27.4736 31.4094 27.5316 31.4336C27.5896 31.4578 27.6518 31.4703 27.7147 31.4704V31.4687H28.4373V31.4687Z" fill="black"/>
<path fill-rule="evenodd" clip-rule="evenodd" d="M29.857 29.7747V29.7756V29.7747C29.6841 29.7739 29.5175 29.8403 29.3927 29.9601C29.3336 30.0159 29.2863 30.083 29.2537 30.1575C29.2211 30.2319 29.2039 30.3122 29.2031 30.3935V30.8518C29.2031 31.0183 29.276 31.1719 29.3919 31.2843C29.517 31.4036 29.6833 31.47 29.8562 31.4697V31.4688H29.857V31.4697C30.0302 31.4704 30.1969 31.404 30.3222 31.2843C30.438 31.1719 30.511 31.0183 30.511 30.8518V30.3935C30.5101 30.3123 30.4929 30.2321 30.4605 30.1577C30.428 30.0832 30.381 30.016 30.3222 29.9601C30.1969 29.8404 30.0302 29.774 29.857 29.7747V29.7747ZM29.857 29.2855V29.2864C30.1694 29.2864 30.4543 29.41 30.662 29.6082C30.8697 29.8082 30.9993 30.0862 31.0002 30.3935V30.8518C30.9994 30.9989 30.9689 31.1443 30.9107 31.2793C30.8524 31.4144 30.7676 31.5364 30.6612 31.6379C30.4543 31.8353 30.1694 31.9589 29.857 31.9589V31.9597C29.5438 31.9597 29.2597 31.8353 29.0529 31.6362C28.9465 31.535 28.8617 31.4134 28.8035 31.2786C28.7454 31.1438 28.7152 30.9986 28.7147 30.8518H28.7139V30.3935C28.7139 30.0871 28.8443 29.8082 29.0529 29.6082C29.2588 29.4108 29.5438 29.2864 29.8562 29.2864V29.2855H29.857V29.2855Z" fill="black"/>
<path fill-rule="evenodd" clip-rule="evenodd" d="M19.5197 29.7756V31.4688H20.468V31.4697C20.5085 31.4697 20.5486 31.4615 20.5859 31.4458C20.6232 31.43 20.657 31.4069 20.6852 31.3779C20.7142 31.3497 20.7372 31.3159 20.7528 31.2786C20.7685 31.2413 20.7764 31.2012 20.7762 31.1607H20.7753V31.1599H20.7762C20.7761 31.0833 20.7473 31.0095 20.6955 30.953L20.6852 30.9419C20.6569 30.913 20.6231 30.8901 20.5858 30.8745C20.5485 30.8589 20.5085 30.8509 20.468 30.8509V30.8518H20.1419C20.0768 30.8518 20.0144 30.8259 19.9684 30.7799C19.9223 30.7339 19.8965 30.6714 19.8965 30.6063C19.8965 30.5412 19.9223 30.4788 19.9684 30.4328C20.0144 30.3867 20.0768 30.3609 20.1419 30.3609H20.2526C20.3223 30.3548 20.3876 30.3244 20.4372 30.2751H20.438C20.4931 30.2202 20.5242 30.1459 20.5247 30.0682V30.0674C20.5246 30.0288 20.5169 29.9906 20.5018 29.9551C20.4868 29.9196 20.4648 29.8874 20.4372 29.8605C20.4103 29.8331 20.3783 29.8113 20.3429 29.7964C20.3075 29.7815 20.2696 29.7739 20.2312 29.7739V29.7747H19.5189L19.5197 29.7756ZM19.0305 30.6072V29.5413C19.0305 29.5069 19.0365 29.4743 19.0503 29.4434C19.0627 29.4118 19.082 29.3834 19.1069 29.3602L19.1086 29.3568C19.1521 29.3144 19.2094 29.2891 19.27 29.2855H19.2854H20.2312C20.4475 29.2855 20.6431 29.3739 20.7839 29.5155C20.8566 29.5878 20.9143 29.6738 20.9536 29.7685C20.993 29.8632 21.0131 29.9648 21.013 30.0674H21.0139V30.0682H21.013C21.0127 30.2157 20.9711 30.3602 20.8929 30.4853C20.9501 30.5198 21.0021 30.5623 21.0473 30.6115C21.1874 30.7594 21.2654 30.9553 21.2653 31.159H21.2662V31.1599H21.2653C21.2657 31.2647 21.2453 31.3686 21.2054 31.4655C21.1654 31.5625 21.1067 31.6505 21.0326 31.7247C20.9585 31.7989 20.8705 31.8577 20.7736 31.8977C20.6767 31.9378 20.5729 31.9583 20.468 31.958V31.9589H19.2751C19.2429 31.959 19.2109 31.9528 19.1811 31.9405C19.1513 31.9283 19.1242 31.9103 19.1013 31.8876C19.0784 31.8649 19.0603 31.8379 19.0478 31.8082C19.0354 31.7784 19.0289 31.7465 19.0288 31.7143V30.6072H19.0305Z" fill="black"/>
</g>
<defs>
<clipPath id="clip0_3227_153108">
<rect width="40" height="40" fill="white"/>
</clipPath>
</defs>
</svg>
